HIERARCHY
ROOT Hips
{
	OFFSET 0.000000 0.000000 0.000000
	CHANNELS 6 Xposition Yposition Zposition Xrotation Yrotation Zrotation
	JOINT LeftUpLeg_virtual
	{
		OFFSET 0.000000 0.000000 0.000000
		CHANNELS 3 Xrotation Yrotation Zrotation
		JOINT LeftUpLeg
		{
			OFFSET 15.427100 -6.655098 0.678600
			CHANNELS 3 Xrotation Yrotation Zrotation
			JOINT LeftLeg
			{
				OFFSET 4.081073 -39.591068 13.024000
				CHANNELS 3 Xrotation Yrotation Zrotation
				JOINT LeftFoot
				{
					OFFSET -4.081074 -37.707932 -15.979700
					CHANNELS 3 Xrotation Yrotation Zrotation
					JOINT LeftToeBase
					{
						OFFSET 5.346399 -15.068900 20.645000
						CHANNELS 3 Xrotation Yrotation Zrotation
						JOINT LeftToe_End
						{
							OFFSET 2.754700 0.931300 11.300900
							CHANNELS 3 Xrotation Yrotation Zrotation
							End Site
							{
								OFFSET 0 0 0
							}
						}
					}
				}
			}
		}
	}
	JOINT RightUpLeg_virtual
	{
		OFFSET 0.000000 0.000000 0.000000
		CHANNELS 3 Xrotation Yrotation Zrotation
		JOINT RightUpLeg
		{
			OFFSET -15.569500 -6.655098 0.678600
			CHANNELS 3 Xrotation Yrotation Zrotation
			JOINT RightLeg
			{
				OFFSET -4.081825 -39.591045 13.023800
				CHANNELS 3 Xrotation Yrotation Zrotation
				JOINT RightFoot
				{
					OFFSET 4.081824 -37.707954 -15.979600
					CHANNELS 3 Xrotation Yrotation Zrotation
					JOINT RightToeBase
					{
						OFFSET -5.346400 -15.068900 20.645000
						CHANNELS 3 Xrotation Yrotation Zrotation
						JOINT RightToe_End
						{
							OFFSET -2.754700 0.931300 11.300900
							CHANNELS 3 Xrotation Yrotation Zrotation
							End Site
							{
								OFFSET 0 0 0
							}
						}
					}
				}
			}
		}
	}
	JOINT Spine_virtual
	{
		OFFSET 0.000000 0.000000 0.000000
		CHANNELS 3 Xrotation Yrotation Zrotation
		JOINT Spine
		{
			OFFSET -0.279200 12.230698 -2.892100
			CHANNELS 3 Xrotation Yrotation Zrotation
			JOINT Spine1
			{
				OFFSET -0.232667 10.192268 -1.242267
				CHANNELS 3 Xrotation Yrotation Zrotation
				JOINT Spine1_split
				{
					OFFSET -0.232667 10.192268 -1.242267
					CHANNELS 3 Xrotation Yrotation Zrotation
					JOINT Spine2
					{
						OFFSET -0.232667 10.192268 -1.242267
						CHANNELS 3 Xrotation Yrotation Zrotation
						JOINT Neck_virtual
						{
							OFFSET 0.000000 0.000000 0.000000
							CHANNELS 3 Xrotation Yrotation Zrotation
							JOINT Neck
							{
								OFFSET -0.418800 17.814194 8.416900
								CHANNELS 3 Xrotation Yrotation Zrotation
								JOINT Head
								{
									OFFSET 0.000000 7.031097 3.806800
									CHANNELS 3 Xrotation Yrotation Zrotation
									JOINT HeadTop_End
									{
										OFFSET 0.000000 24.646606 12.978600
										CHANNELS 3 Xrotation Yrotation Zrotation
										End Site
										{
											OFFSET 0 0 0
										}
									}
								}
							}
						}
						JOINT LeftShoulder_virtual
						{
							OFFSET 0.000000 0.000000 0.000000
							CHANNELS 3 Xrotation Yrotation Zrotation
							JOINT LeftShoulder
							{
								OFFSET 8.476499 7.247704 -3.868750
								CHANNELS 3 Xrotation Yrotation Zrotation
								JOINT LeftShoulder_split
								{
									OFFSET 8.476499 7.247704 -3.868750
									CHANNELS 3 Xrotation Yrotation Zrotation
									JOINT LeftArm
									{
										OFFSET 9.308998 -2.777710 0.208600
										CHANNELS 3 Xrotation Yrotation Zrotation
										JOINT LeftForeArm
										{
											OFFSET 29.972298 0.000000 0.000000
											CHANNELS 3 Xrotation Yrotation Zrotation
											JOINT LeftHand
											{
												OFFSET 26.026505 0.000000 0.000000
												CHANNELS 3 Xrotation Yrotation Zrotation
												End Site
												{
													OFFSET 0 0 0
												}
											}
										}
									}
								}
							}
						}
						JOINT RightShoulder_virtual
						{
							OFFSET 0.000000 0.000000 0.000000
							CHANNELS 3 Xrotation Yrotation Zrotation
							JOINT RightShoulder
							{
								OFFSET -7.570500 7.247704 -3.868750
								CHANNELS 3 Xrotation Yrotation Zrotation
								JOINT RightShoulder_split
								{
									OFFSET -7.570500 7.247704 -3.868750
									CHANNELS 3 Xrotation Yrotation Zrotation
									JOINT RightArm
									{
										OFFSET -9.308998 -2.777710 0.208500
										CHANNELS 3 Xrotation Yrotation Zrotation
										JOINT RightForeArm
										{
											OFFSET -29.972300 0.000000 0.000000
											CHANNELS 3 Xrotation Yrotation Zrotation
											JOINT RightHand
											{
												OFFSET -26.026505 0.000000 0.000000
												CHANNELS 3 Xrotation Yrotation Zrotation
												End Site
												{
													OFFSET 0 0 0
												}
											}
										}
									}
								}
							}
						}
					}
				}
			}
		}
	}
}
MOTION
Frames: 12
Frame Time: 0.03333333
0.514967 93.519653 0.493866 0.000000 0.000000 0.000000 -1.780615 6.556493 -2.558048 -1.275431 9.593172 13.495336 11.402725 -5.384857 -1.111282 -8.549754 1.558816 -8.574380 2.156536 0.219731 -2.678543 0.000000 0.000000 0.000000 -1.308760 6.563683 -2.956062 0.845567 -3.741617 -1.269711 7.838929 5.456976 4.086719 -6.397870 0.687568 -2.631928 1.533014 -0.225102 -0.396140 0.000000 0.000000 0.000000 -1.489631 9.749722 -3.070611 7.929565 -0.954985 1.680177 2.529382 0.209394 -0.354728 0.169410 -1.747093 0.996836 0.000000 0.000000 0.000000 -3.914080 -0.031252 0.278265 0.046956 0.871381 -0.025269 4.151747 -2.163911 -1.121857 0.000000 0.000000 0.000000 -3.999233 -0.355788 0.338291 0.445424 -2.549182 -7.233942 -2.252805 -2.106786 0.586449 4.729236 -3.685848 -73.107743 5.113740 -12.082850 1.492320 0.000000 0.000000 0.000000 -4.594594 -0.672484 0.313677 0.517264 7.946960 6.194045 -4.233178 -1.706186 -0.530491 4.787242 13.579844 74.603349 17.908710 18.744377 -3.666860 0.000000 0.000000 0.000000 
0.491506 93.633820 0.629955 0.000000 0.000000 0.000000 -1.533459 6.445623 -2.587865 -1.245065 9.671396 13.697411 10.985622 -5.157819 -1.260580 -8.933875 1.353126 -8.327271 2.353262 0.216863 -2.625146 0.000000 0.000000 0.000000 -1.188916 6.289969 -2.955864 0.767473 -3.559519 -1.226322 7.936327 5.520824 4.123452 -6.343773 0.879748 -2.954390 1.918239 -0.258516 -0.322655 0.000000 0.000000 0.000000 -1.059673 9.657733 -3.053501 8.014221 -0.906349 1.689716 2.533490 0.159375 -0.382512 0.405765 -2.051996 0.950848 0.000000 0.000000 0.000000 -3.902040 -0.039454 0.261272 0.088103 0.991610 -0.096744 4.247126 -2.361839 -0.991279 0.000000 0.000000 0.000000 -3.995916 -0.390682 0.308689 0.490401 -2.744986 -7.332549 -2.165798 -2.070901 0.734489 4.566060 -3.599264 -73.219239 5.083854 -12.211396 1.435123 0.000000 0.000000 0.000000 -4.593344 -0.678868 0.338565 0.555871 7.948657 6.300527 -4.153985 -1.722222 -0.650217 4.935356 13.454370 74.527978 17.895695 18.914935 -3.687591 0.000000 0.000000 0.000000 
0.430917 93.661858 0.745541 0.000000 0.000000 0.000000 -1.344579 6.258440 -2.606579 -1.348773 9.821967 13.999858 10.717847 -4.845034 -1.284047 -9.316576 1.035974 -8.433744 2.568585 0.208469 -2.429450 0.000000 0.000000 0.000000 -1.055144 6.026102 -2.972918 0.453819 -3.321416 -1.145450 8.204501 5.780940 4.246014 -6.163293 1.170211 -3.166536 1.969569 -0.263571 -0.333842 0.000000 0.000000 0.000000 -0.662916 9.395382 -3.043195 8.297709 -0.829714 1.745015 2.463309 0.110212 -0.405064 0.512063 -2.211425 0.839032 0.000000 0.000000 0.000000 -3.904903 -0.061832 0.250909 0.133775 1.167085 -0.142809 4.201088 -2.557638 -0.939388 0.000000 0.000000 0.000000 -4.023173 -0.432827 0.293233 0.534552 -3.033853 -7.440270 -2.058984 -1.980961 0.917139 4.375097 -3.423663 -73.270554 5.162465 -12.272025 1.321510 0.000000 0.000000 0.000000 -4.625629 -0.703311 0.359744 0.583098 7.850096 6.548431 -4.107479 -1.646753 -0.811530 5.266857 13.658089 74.100347 17.803547 19.151084 -3.677002 0.000000 0.000000 0.000000 
0.333844 93.572250 0.885815 0.000000 0.000000 0.000000 -1.233665 6.085253 -2.602263 -1.449988 9.954592 14.262681 10.666041 -4.478186 -1.175263 -9.638745 0.707848 -8.869112 2.719212 0.193316 -2.115636 0.000000 0.000000 0.000000 -0.905655 5.788533 -2.987631 -0.016175 -3.145098 -1.049197 8.594873 6.183820 4.454812 -5.928824 1.500682 -3.309299 1.742983 -0.249401 -0.399948 0.000000 0.000000 0.000000 -0.357967 8.922013 -3.010357 8.707783 -0.738358 1.802083 2.319164 0.064978 -0.401907 0.479439 -2.199132 0.745871 0.000000 0.000000 0.000000 -3.914323 -0.092904 0.258612 0.191248 1.371510 -0.163465 4.022785 -2.743814 -0.952934 0.000000 0.000000 0.000000 -4.075844 -0.479474 0.305930 0.580104 -3.346228 -7.548359 -2.085163 -1.826859 0.992667 4.182113 -3.196526 -73.243636 5.352479 -12.206031 1.168918 0.000000 0.000000 0.000000 -4.689804 -0.743404 0.387702 0.604553 7.649865 6.899001 -4.103606 -1.527237 -1.031551 5.734607 14.155831 73.396113 17.630504 19.437947 -3.637007 0.000000 0.000000 0.000000 
0.204179 93.413925 1.089970 0.000000 0.000000 0.000000 -1.162929 5.897919 -2.565060 -1.316645 10.021810 14.364023 10.730991 -3.976664 -0.959268 -9.988574 0.496700 -9.352895 2.716455 0.190297 -1.813290 0.000000 0.000000 0.000000 -0.745015 5.503812 -2.977884 -0.553264 -3.126799 -0.981548 9.028272 6.630145 4.718009 -5.702373 1.768010 -3.507062 1.515658 -0.223220 -0.466384 0.000000 0.000000 0.000000 -0.158142 8.248456 -2.945023 9.147844 -0.658228 1.815749 2.121368 0.022801 -0.353986 0.430180 -2.054989 0.689842 0.000000 0.000000 0.000000 -3.922509 -0.134650 0.299944 0.263489 1.601725 -0.138028 3.744857 -2.898014 -1.021249 0.000000 0.000000 0.000000 -4.145266 -0.529027 0.358180 0.624541 -3.635363 -7.679031 -2.244430 -1.635172 0.948562 3.990957 -2.937214 -73.125289 5.644036 -11.986332 0.995613 0.000000 0.000000 0.000000 -4.771584 -0.796506 0.442116 0.635001 7.343747 7.284147 -4.073171 -1.417153 -1.286539 6.285564 14.893789 72.518625 17.389291 19.733755 -3.576808 0.000000 0.000000 0.000000 
0.001450 93.250824 1.300480 0.000000 0.000000 0.000000 -1.096972 5.668502 -2.480377 -0.936814 9.980312 14.296030 10.670843 -3.302330 -0.678179 -10.393291 0.489471 -9.732145 2.695062 0.204115 -1.678959 0.000000 0.000000 0.000000 -0.541802 5.151414 -2.923203 -1.113471 -3.280313 -0.959357 9.445102 7.075054 5.015620 -5.544678 1.916065 -3.828472 1.477525 -0.186215 -0.485525 0.000000 0.000000 0.000000 0.023219 7.425110 -2.864915 9.501045 -0.600908 1.765355 1.895929 -0.027134 -0.247845 0.365340 -1.807486 0.661045 0.000000 0.000000 0.000000 -3.925631 -0.188606 0.383896 0.324398 1.860142 -0.049222 3.399836 -3.008109 -1.115571 0.000000 0.000000 0.000000 -4.226264 -0.586660 0.456235 0.659215 -3.864264 -7.842232 -2.435312 -1.420017 0.822114 3.801059 -2.664520 -72.900795 6.006452 -11.598678 0.806826 0.000000 0.000000 0.000000 -4.848128 -0.857069 0.536811 0.691250 6.956441 7.638623 -4.024220 -1.341431 -1.510869 6.863681 15.776711 71.579481 17.106624 19.991175 -3.508299 0.000000 0.000000 0.000000 
-0.266916 93.102867 1.520119 0.000000 0.000000 0.000000 -1.006114 5.321421 -2.368037 -0.406929 9.833599 14.170757 10.281964 -2.420906 -0.432813 -10.741266 0.673566 -10.144515 2.853434 0.215155 -1.809683 0.000000 0.000000 0.000000 -0.273744 4.689783 -2.834260 -1.687857 -3.513495 -0.968744 9.863149 7.559315 5.322292 -5.498270 1.989126 -4.266936 1.593877 -0.126829 -0.446208 0.000000 0.000000 0.000000 0.239310 6.480631 -2.783043 9.711905 -0.574993 1.644910 1.681300 -0.094026 -0.094038 0.387161 -1.519021 0.689710 0.000000 0.000000 0.000000 -3.911914 -0.252827 0.508633 0.358898 2.150372 0.110174 3.062899 -3.053800 -1.210973 0.000000 0.000000 0.000000 -4.302036 -0.663135 0.590955 0.679000 -4.016732 -8.051036 -2.603273 -1.220104 0.666533 3.660187 -2.342238 -72.576361 6.393024 -11.099612 0.600828 0.000000 0.000000 0.000000 -4.911783 -0.926995 0.676288 0.774195 6.516933 7.949804 -3.931576 -1.296210 -1.667901 7.392468 16.727582 70.659502 16.806492 20.158381 -3.443416 0.000000 0.000000 0.000000 
-0.621111 93.007248 1.821915 0.000000 0.000000 0.000000 -0.857838 4.814858 -2.244474 0.114260 9.563078 14.145464 9.578873 -1.377472 -0.328957 -10.831510 0.959185 -10.832746 3.152363 0.210072 -2.113670 0.000000 0.000000 0.000000 0.057666 4.152313 -2.721521 -2.225188 -3.670101 -0.924091 10.273940 8.116438 5.612740 -5.557679 2.000359 -4.730300 1.671102 -0.041800 -0.379575 0.000000 0.000000 0.000000 0.469584 5.423563 -2.726061 9.757237 -0.582276 1.488749 1.504378 -0.188978 0.084844 0.434229 -1.286886 0.666321 0.000000 0.000000 0.000000 -3.892682 -0.331684 0.652684 0.371032 2.461392 0.353855 2.807987 -2.980558 -1.296748 0.000000 0.000000 0.000000 -4.352699 -0.759405 0.745783 0.683729 -4.077199 -8.270612 -2.695935 -1.125940 0.584373 3.576828 -1.965659 -72.180783 6.745475 -10.631548 0.366164 0.000000 0.000000 0.000000 -4.954741 -1.006424 0.847788 0.869053 6.054976 8.221825 -3.830254 -1.228449 -1.713779 7.813362 17.649733 69.820420 16.502367 20.218262 -3.387229 0.000000 0.000000 0.000000 
-1.117885 92.898865 2.246925 0.000000 0.000000 0.000000 -0.664431 4.125145 -2.128706 0.489210 9.189835 14.329011 8.856917 -0.164937 -0.357569 -10.730535 1.342361 -11.901811 3.505027 0.160405 -2.377073 0.000000 0.000000 0.000000 0.441984 3.435434 -2.610068 -2.705746 -3.648815 -0.689262 10.744685 8.761747 5.894399 -5.741640 1.960081 -5.133187 1.571953 0.067582 -0.326360 0.000000 0.000000 0.000000 0.667808 4.229829 -2.716077 9.682132 -0.605844 1.362292 1.371895 -0.306900 0.260141 0.472548 -1.094369 0.630107 0.000000 0.000000 0.000000 -3.882175 -0.425606 0.784202 0.373281 2.794043 0.660029 2.679354 -2.770634 -1.365546 0.000000 0.000000 0.000000 -4.365181 -0.871553 0.898190 0.676051 -4.042682 -8.459127 -2.706004 -1.147994 0.583512 3.602425 -1.599265 -71.738652 6.996989 -10.303292 0.100109 0.000000 0.000000 0.000000 -4.973442 -1.095760 1.016554 0.960966 5.601982 8.500684 -3.781207 -1.091743 -1.684396 8.098887 18.437814 69.089091 16.191559 20.169316 -3.328262 0.000000 0.000000 0.000000 
-1.729278 92.729378 2.780952 0.000000 0.000000 0.000000 -0.462238 3.135312 -2.038388 0.872484 8.755393 14.643685 8.430553 1.303451 -0.422620 -10.832315 1.900452 -13.270397 3.799766 0.070967 -2.400170 0.000000 0.000000 0.000000 0.791245 2.423432 -2.516722 -3.161802 -3.420849 -0.203765 11.442140 9.473419 6.164382 -6.100810 1.899716 -5.480613 1.303914 0.196151 -0.306539 0.000000 0.000000 0.000000 0.770130 2.837121 -2.749735 9.594753 -0.635467 1.317721 1.259098 -0.442721 0.398244 0.555675 -0.940075 0.623256 0.000000 0.000000 0.000000 -3.877166 -0.531488 0.876815 0.379665 3.169645 0.998636 2.667791 -2.418902 -1.412129 0.000000 0.000000 0.000000 -4.332265 -0.994148 1.020649 0.666995 -3.921358 -8.605639 -2.633906 -1.271859 0.667198 3.733427 -1.275064 -71.302223 7.090841 -10.190631 -0.192225 0.000000 0.000000 0.000000 -4.968695 -1.197676 1.142857 1.034327 5.160453 8.834976 -3.696675 -0.880654 -1.618973 8.227014 19.043539 68.448406 15.864224 20.010511 -3.253103 0.000000 0.000000 0.000000 
-2.464289 92.452591 3.357830 0.000000 0.000000 0.000000 -0.346885 1.730799 -1.976474 1.216793 8.300309 15.089452 8.692737 2.948121 -0.396604 -11.431588 2.602118 -14.872708 3.807471 -0.040250 -2.019947 0.000000 0.000000 0.000000 1.031749 1.025796 -2.440684 -3.677354 -2.985917 0.531287 12.439505 10.202166 6.462779 -6.625387 1.807948 -5.787221 0.933538 0.340324 -0.327343 0.000000 0.000000 0.000000 0.754037 1.254004 -2.830163 9.591204 -0.663666 1.386475 1.141464 -0.587984 0.475543 0.607066 -0.834379 0.573964 0.000000 0.000000 0.000000 -3.873344 -0.647902 0.907040 0.396768 3.591407 1.342424 2.709354 -1.930731 -1.458036 0.000000 0.000000 0.000000 -4.266165 -1.117730 1.083831 0.659003 -3.741394 -8.694319 -2.496256 -1.425679 0.776504 3.913365 -0.999753 -70.886087 7.020073 -10.274134 -0.500407 0.000000 0.000000 0.000000 -4.940671 -1.309886 1.188325 1.077564 4.740237 9.235376 -3.544820 -0.632885 -1.556926 8.237544 19.492023 67.866604 15.527349 19.843006 -3.168122 0.000000 0.000000 0.000000 
-3.285398 92.032547 3.890598 0.000000 0.000000 0.000000 -0.362786 0.040232 -1.963410 1.377421 7.811903 15.647024 9.991937 4.570555 -0.228599 -12.356226 3.305282 -16.708892 3.222125 -0.153354 -1.191550 0.000000 0.000000 0.000000 1.087352 -0.761620 -2.407237 -4.295804 -2.368928 1.495316 13.671779 10.918436 6.819900 -7.311893 1.724502 -6.130485 0.677610 0.503114 -0.390189 0.000000 0.000000 0.000000 0.639332 -0.462924 -2.939838 9.734717 -0.689666 1.583003 1.001384 -0.731649 0.487640 0.601797 -0.755741 0.591319 0.000000 0.000000 0.000000 -3.870010 -0.769692 0.869365 0.435900 4.064546 1.670224 2.722011 -1.309377 -1.544456 0.000000 0.000000 0.000000 -4.179917 -1.239043 1.075618 0.650985 -3.534235 -8.723258 -2.335541 -1.496935 0.859616 4.139291 -0.733652 -70.460259 6.814782 -10.543988 -0.806252 0.000000 0.000000 0.000000 -4.897150 -1.432305 1.145549 1.089679 4.338452 9.697860 -3.331808 -0.423333 -1.550518 8.219035 19.909674 67.259612 15.191724 19.721932 -3.075849 0.000000 0.000000 0.000000 
